<svg xmlns="http://www.w3.org/2000/svg" version="1.1" viewBox="-5.0 -10.0 110.0 135.0">
 <path d="m40 48.301c-3.1016 0-5.5 2.5-5.5 5.5s2.5 5.5 5.5 5.5 5.5-2.5 5.5-5.5-2.5-5.5-5.5-5.5zm0 8c-1.3984 0-2.5-1.1016-2.5-2.5 0-1.3984 1.1016-2.5 2.5-2.5s2.5 1.1016 2.5 2.5c0 1.3984-1.1016 2.5-2.5 2.5z"/>
 <path d="m60 48.301c-3.1016 0-5.5 2.5-5.5 5.5s2.5 5.5 5.5 5.5 5.5-2.5 5.5-5.5-2.3984-5.5-5.5-5.5zm0 8c-1.3984 0-2.5-1.1016-2.5-2.5 0-1.3984 1.1016-2.5 2.5-2.5s2.5 1.1016 2.5 2.5c0 1.3984-1.1016 2.5-2.5 2.5z"/>
 <path d="m80.5 51.301h-1.5v-0.10156c0-5.8008-3.5-10.801-8.3984-13.102l3.3008-7.3008h0.19922c0.69922 0 1.3008-0.10156 2-0.39844 1.1016-0.5 2-1.5 2.3984-2.6016 0.39844-1.1992 0.39844-2.5-0.19922-3.6016-0.5-1.1016-1.5-2-2.6016-2.3984-1.1992-0.39844-2.5-0.39844-3.6016 0.19922-1.1016 0.5-2 1.5-2.3984 2.6016-0.39844 1.1992-0.39844 2.5 0.19922 3.6016 0.30078 0.60156 0.69922 1.1992 1.3008 1.6016l-3.3984 7.1992c-1.1016-0.19922-2.1016-0.39844-3.3008-0.39844h-29c-0.60156 0-1.1016 0-1.6016 0.10156l-3.1992-7.1016c0.5-0.39844 1-1 1.3008-1.6016 0.5-1.1016 0.60156-2.3984 0.19922-3.6016-0.39844-1.1992-1.3008-2.1016-2.3984-2.6016-1.1016-0.5-2.3984-0.60156-3.6016-0.19922-1.1992 0.39844-2.1016 1.3008-2.6016 2.3984-0.5 1.1016-0.60156 2.3984-0.19922 3.6016 0.69922 1.8984 2.5 3.1016 4.3984 3.1016h0.19922l3 6.6992c-5.6992 1.8984-9.8984 7.3984-9.8984 13.699v0.10156h-1.5c-3.3008 0-6 2.6992-6 6s2.6992 6 6 6h1.6992c1 5.3008 5.6992 9.3984 11.301 9.3984h35c5.6016 0 10.301-4 11.301-9.3984h1.6992c3.3008 0 6-2.6992 6-6-0.097656-3.1992-2.7969-5.8984-6.0977-5.8984zm-8-25.801c0.19922-0.39844 0.5-0.80078 0.89844-1 0.19922-0.10156 0.5-0.19922 0.69922-0.19922 0.19922 0 0.39844 0 0.60156 0.10156 0.39844 0.19922 0.80078 0.5 1 0.89844 0.19922 0.39844 0.19922 0.89844 0.10156 1.3008-0.19922 0.39844-0.5 0.80078-0.89844 1-0.39844 0.19922-0.89844 0.19922-1.3008 0.10156-0.39844-0.19922-0.80078-0.5-1-0.89844-0.20312-0.40625-0.20312-0.90625-0.10156-1.3047zm-46.5 1.1992c-0.19922-0.39844-0.10156-0.89844 0.10156-1.3008 0.19922-0.39844 0.5-0.69922 1-0.89844 0.19922-0.10156 0.39844-0.10156 0.60156-0.10156 0.19922 0 0.5 0.10156 0.69922 0.19922 0.39844 0.19922 0.69922 0.5 0.89844 1 0.19922 0.39844 0.10156 0.89844-0.10156 1.3008-0.19922 0.39844-0.5 0.69922-1 0.89844-0.39844 0.19922-0.89844 0.10156-1.3008-0.10156-0.39844-0.29687-0.69922-0.59375-0.89844-0.99609zm-9.5 30.602c0-1.6016 1.3008-3 3-3h1.5v6h-1.5c-1.6992-0.10156-3-1.4023-3-3zm59.5 3.8008c0 4.6992-3.8008 8.5-8.5 8.5h-35c-4.6992 0-8.5-3.8008-8.5-8.5v-10c0-6.3008 5.1992-11.5 11.5-11.5h29c6.3008 0 11.5 5.1992 11.5 11.5zm4.5-0.90234h-1.5v-6h1.5c1.6016 0 3 1.3008 3 3s-1.3008 3-3 3z"/>
 <path d="m63.5 42.801h-27c-5.1992 0-9.5 4.3008-9.5 9.5v8.1016c0 3.6016 2.8984 6.5 6.5 6.5h33c3.6016 0 6.5-2.8984 6.5-6.5v-8.1016c0-5.3008-4.3008-9.5-9.5-9.5zm6.5 17.598c0 1.8984-1.6016 3.5-3.5 3.5h-33c-1.8984 0-3.5-1.6016-3.5-3.5v-8.1016c0-3.6016 2.8984-6.5 6.5-6.5h27c3.6016 0 6.5 2.8984 6.5 6.5z"/>
<text x="0.0" y="117.5" font-size="5.0" font-weight="bold" font-family="Arbeit Regular, Helvetica, Arial-Unicode, Arial, Sans-serif" fill="#000000">Created by Indigo Diamond</text><text x="0.0" y="122.5" font-size="5.0" font-weight="bold" font-family="Arbeit Regular, Helvetica, Arial-Unicode, Arial, Sans-serif" fill="#000000">from Noun Project</text></svg>