<svg xmlns="http://www.w3.org/2000/svg" version="1.1" viewBox="-5.0 -10.0 110.0 135.0">
 <g>
  <path d="m89.324 57.68 0.24609-9.5117v0.003906c1.3984-0.51562 2.25-1.9336 2.0469-3.4102-0.20313-1.4766-1.4062-2.6094-2.8906-2.7266l-2.9102-9.4336h-0.003906c2.1484-1.3047 2.9062-4.0586 1.7305-6.2773s-3.8789-3.1367-6.1641-2.0938l-8.1641-10.203c0.9375-1.2344 1.2266-2.8477 0.76953-4.332-0.45703-1.4844-1.5977-2.6562-3.0703-3.1523-1.4727-0.49609-3.0898-0.25391-4.3516 0.65234s-2.0078 2.3672-2.0078 3.918v0.023438l-6.3359 1.6211h0.003906c-0.69141-1.0898-1.8867-1.7539-3.1758-1.7617-1.2891-0.011719-2.4961 0.63281-3.2031 1.7148-0.70312 1.0781-0.8125 2.4414-0.28906 3.6172 0.52734 1.1797 1.6133 2.0078 2.8906 2.2031l0.89453 5.4805-0.003906 0.003906c-1.8242 0.77734-2.9883 2.5938-2.9453 4.5781 0.046875 1.9844 1.2969 3.7422 3.1562 4.4375l-0.69922 5.9961c-1.5195 0.32812-2.6641 1.5898-2.8398 3.1328-0.17578 1.5469 0.65625 3.0352 2.0625 3.6953l-1.8281 16.465v-0.003906c-1.7656 0.34375-3.0703 1.8438-3.168 3.6406-0.097657 1.7969 1.0391 3.4297 2.7578 3.9609l0.042969 13.953c-0.95312 0.37891-1.6641 1.1992-1.9062 2.1953s0.011719 2.0469 0.68359 2.8242c0.66797 0.77344 1.6719 1.1797 2.6953 1.082 1.0195-0.09375 1.9297-0.67578 2.4453-1.5625l8.8633 1.3242h0.003906c0.17578 1.0664 0.80078 2.0039 1.7109 2.582 0.91406 0.57812 2.0312 0.73828 3.0703 0.44141 1.0352-0.29687 1.8984-1.0234 2.3711-1.9961 0.46875-0.97266 0.50391-2.0977 0.089844-3.0977l6.8555-5.8281v0.003906c2.1328 1.5234 5.0977 1.0273 6.6211-1.1055 1.5234-2.1328 1.0273-5.0977-1.1055-6.6211l3.5586-9.0781c0.074219 0.003906 0.14844 0.011719 0.22266 0.011719h0.003906c1.8477 0 3.4258-1.3281 3.7383-3.1484 0.3125-1.8203-0.73047-3.6016-2.4727-4.2188zm-0.84766-13.316-0.003906 0.003907c0.33594 0 0.64062 0.19922 0.76953 0.51172 0.125 0.30859 0.054687 0.66797-0.18359 0.90234-0.23438 0.23828-0.59375 0.30859-0.90234 0.17969-0.30859-0.125-0.51172-0.42969-0.51172-0.76563 0-0.45703 0.37109-0.82812 0.82812-0.82812zm-5.1367-18.223v0.003906c0.97266 0 1.8516 0.58594 2.2227 1.4883 0.375 0.89844 0.16797 1.9336-0.51953 2.625-0.69141 0.6875-1.7266 0.89453-2.625 0.51953-0.90234-0.37109-1.4883-1.25-1.4883-2.2227 0-1.332 1.0781-2.4102 2.4102-2.4102zm0 7.1602c0.078125 0 0.15625-0.007812 0.23438-0.011719l2.9102 9.4336v0.003906c-0.22656 0.18359-0.42578 0.39453-0.59375 0.63281l-11.574-2.8281v-0.003906c-0.011718-0.69141-0.17969-1.375-0.49609-1.9922l6.8477-6.0547c0.78516 0.53906 1.7188 0.82422 2.6719 0.82422zm-7.1094 21.906h0.03125v0.007813c0.82031 0 1.625-0.24609 2.3047-0.70703l6.1133 5.0273c-0.14844 0.28906-0.25781 0.59375-0.32422 0.90625l-8.2305 1.6211c-0.36328-0.62109-0.89844-1.125-1.5469-1.4414zm-1.7461-4.1211v0.007812c0-0.71875 0.43359-1.3672 1.0977-1.6406 0.66406-0.27734 1.4258-0.125 1.9336 0.38281 0.51172 0.50781 0.66406 1.2734 0.38672 1.9375-0.27344 0.66406-0.92188 1.0977-1.6406 1.0977-0.98047 0-1.7773-0.79688-1.7773-1.7773zm1.7773-4.1211v0.007812c-0.37109 0-0.74219 0.054688-1.0977 0.15234l-2.1016-3.3633v0.003906c0.27344-0.28906 0.50781-0.61328 0.69922-0.96094l11.574 2.8281c0.007812 0.0625 0.015624 0.125 0.027343 0.18359l-5.957 2.6172h-0.003906c-0.78125-0.92578-1.9297-1.4609-3.1406-1.4609zm-19.711 17.547 2.8906-2.6289v0.007813c0.55469 0.35547 1.1797 0.57812 1.832 0.66016l1.2383 8.6211c-0.22656 0.10547-0.44531 0.22656-0.65234 0.36719l-5.1875-4.0117v0.003906c0.36719-0.98047 0.32422-2.0664-0.12109-3.0117zm5.5625-36.121 5.0156-1.3477c0.39453 0.625 0.97656 1.1055 1.6641 1.3711l-0.16406 7.7109c-0.45703 0.11328-0.89453 0.29297-1.2969 0.53516l-5.8828-5.7305c0.4375-0.74219 0.66797-1.5859 0.66797-2.4453 0-0.03125-0.003907-0.0625-0.003907-0.09375zm7.9219-2.0859c-0.44531 0-0.84766-0.26563-1.0156-0.67969-0.17188-0.41016-0.078125-0.88281 0.23828-1.1992 0.3125-0.3125 0.78516-0.40625 1.1992-0.23828 0.41016 0.17188 0.67578 0.57422 0.67578 1.0156 0 0.60938-0.49219 1.1016-1.0977 1.1016zm1.1016 2.1602c0.71484-0.24219 1.3281-0.71094 1.75-1.332l5.6992 1.4336c0.003906 0.75 0.18359 1.4883 0.53125 2.1562l-6.8438 6.0508-0.003907 0.003906c-0.39844-0.26953-0.83594-0.47266-1.2969-0.60156zm-1.4297 9.875c0.91797 0 1.7461 0.55078 2.0977 1.3984 0.34766 0.84766 0.15625 1.8242-0.49219 2.4727-0.64844 0.64844-1.625 0.84375-2.4727 0.49219s-1.4023-1.1797-1.4023-2.0938c0-1.2539 1.0156-2.2695 2.2695-2.2695zm-3.043 5.7266-4.8242 9.625h-0.019532 0.003907c-0.15234 0-0.30859 0.007813-0.46094 0.023438l-3.3789-8.3945v-0.003906c0.62109-0.53125 1.043-1.2617 1.1953-2.0664l6.2695-0.86719v-0.003906c0.27344 0.64844 0.6875 1.2227 1.2148 1.6875zm-0.96875-5.7305c-0.30078 0.53125-0.49219 1.1172-0.56641 1.7227l-6.2812 0.87109c-0.36328-0.71094-0.95312-1.2812-1.6719-1.6289l0.69922-6c0.6875-0.085937 1.3477-0.32422 1.9375-0.69141zm-6.5156 16.23v0.003906c-1.75 1.2852-2.3086 3.6523-1.3164 5.5859l-2.8906 2.6289c-0.12891-0.078125-0.26172-0.14844-0.40234-0.20703l1.6953-15.25zm2.6406 5.6758 0.003907 0.003906c-0.85156 0-1.6211-0.51562-1.9453-1.3008-0.32422-0.78516-0.14453-1.6914 0.45703-2.293 0.60156-0.60156 1.5078-0.78516 2.293-0.45703 0.78516 0.32422 1.3008 1.0938 1.3008 1.9453-0.003907 1.1602-0.94531 2.1016-2.1055 2.1055zm3.582 0.52344 4.0234 2.3711 0.003907 0.003906c-0.19922 0.96875 0.003906 1.9766 0.56641 2.7891l-3.8164 5.1367c-0.43359-0.17578-0.89453-0.28125-1.3633-0.31641l-1.2266-8.5312h0.003906c0.72266-0.31641 1.3477-0.81641 1.8125-1.4492zm0.84766-2.2227c0.011719-0.13281 0.019531-0.26953 0.019531-0.40625l0.003907 0.003906c-0.003907-1.5508-0.8125-2.9883-2.1367-3.793l4.6211-9.2266c0.76953 0.16406 1.5664 0.125 2.3203-0.10938l2.0977 3.3594c-0.79297 0.89062-1.1562 2.082-1 3.2656 0.15625 1.1797 0.81641 2.2344 1.8125 2.8906l-1.7695 5.8008c-0.58984 0.12891-1.1367 0.40234-1.5938 0.79297zm6.7305 4.043 0.003906 0.003906c0.51953 0 0.98828 0.3125 1.1875 0.79297 0.19922 0.48047 0.089844 1.0352-0.27734 1.4023-0.37109 0.36719-0.92188 0.47656-1.4023 0.27734-0.48047-0.19922-0.79297-0.66797-0.79297-1.1875 0-0.71094 0.57422-1.2852 1.2852-1.2852zm6.5664-36.895 0.003906 0.003906c-0.14453 0.1875-0.27734 0.39063-0.39062 0.59766l-5.6992-1.4336c-0.14063-1.375-1.0859-2.5312-2.4062-2.9453l-0.28906-6.1836c0.21094-0.0625 0.41797-0.14062 0.62109-0.23438zm-10.168-17.059c1.0039 0 1.9062 0.60547 2.2891 1.5312 0.38672 0.92578 0.17188 1.9961-0.53516 2.7031-0.71094 0.71094-1.7773 0.92187-2.7031 0.53906-0.92578-0.38672-1.5312-1.2891-1.5312-2.293 0.003906-1.3672 1.1133-2.4766 2.4805-2.4805zm-10.578 6.3945 6.3359-1.6211v0.003906c0.68359 1.2539 1.8867 2.1484 3.2891 2.4336l0.28906 6.1836c-0.23828 0.097656-0.46094 0.22266-0.66797 0.37109l-9.3945-6.5195c0.082031-0.27734 0.13281-0.5625 0.14844-0.85156zm-1.4883 2.7734 9.3984 6.5234c-0.039063 0.14062-0.066407 0.28516-0.085938 0.42969l-5.1172 1.375h-0.003906c-0.78906-1.4219-2.2344-2.3555-3.8516-2.4883l-0.89453-5.4844c0.19531-0.10156 0.37891-0.21875 0.55469-0.35156zm-2.293-1.5664v0.003906c-0.58594 0-1.1133-0.35547-1.3398-0.89844-0.22266-0.53906-0.097657-1.1641 0.31641-1.5781 0.41406-0.41406 1.0391-0.53906 1.5781-0.31641 0.54297 0.22656 0.89453 0.75391 0.89453 1.3398 0 0.80078-0.64844 1.4492-1.4492 1.4531zm-0.28516 12.25c0-1.0195 0.61328-1.9414 1.5547-2.3281 0.94141-0.39062 2.0273-0.17578 2.7461 0.54297 0.72266 0.72266 0.9375 1.8047 0.54688 2.7461-0.39062 0.94141-1.3086 1.5586-2.3281 1.5586-1.3906-0.003906-2.5195-1.1289-2.5195-2.5195zm0.88281 12.805c0.51953 0 0.98828 0.3125 1.1875 0.79297 0.19922 0.48047 0.085937 1.0312-0.28125 1.4023-0.36719 0.36719-0.91797 0.47656-1.3984 0.27734s-0.79688-0.66797-0.79688-1.1875c0.003906-0.71094 0.57812-1.2852 1.2891-1.2852zm-2.5625 46.355c-0.33594 0-0.63672-0.20312-0.76563-0.51172-0.12891-0.3125-0.058593-0.66797 0.17969-0.90625 0.23438-0.23828 0.59375-0.30859 0.90234-0.17969 0.3125 0.12891 0.51172 0.43359 0.51172 0.76562 0 0.46094-0.37109 0.83203-0.82812 0.83203zm-0.0625-19.895c-0.63672 0-1.2148-0.38672-1.4609-0.97656-0.24219-0.58984-0.10938-1.2695 0.34375-1.7227s1.1328-0.58984 1.7227-0.34375c0.59375 0.24609 0.97656 0.82031 0.97656 1.4609 0 0.875-0.70703 1.582-1.582 1.582zm1.3086 16.148c-0.027343-0.011719-0.058593-0.023438-0.085937-0.03125l-0.042969-13.953 0.003906-0.003906c0.37891-0.12109 0.73828-0.29688 1.0625-0.52344l5.0898 3.9336-0.003906-0.003906c-0.6875 1.3867-0.625 3.0312 0.16797 4.3594zm10.703 3.5195-8.8633-1.3242v-0.003906c-0.042969-0.18359-0.10156-0.36328-0.17578-0.53906l6.1875-6.2188c0.69922 0.41016 1.5 0.625 2.3125 0.625h0.03125l1.7617 6.0195c-0.53125 0.36719-0.96484 0.86328-1.2539 1.4414zm-0.54297-9.8047h0.003906c-0.91797 0-1.7461-0.55078-2.0977-1.3984-0.35156-0.85156-0.15625-1.8242 0.49219-2.4766 0.64844-0.64844 1.625-0.83984 2.4727-0.48828 0.84766 0.34766 1.4023 1.1758 1.4023 2.0938-0.003906 1.2539-1.0195 2.2695-2.2695 2.2695zm3.9336 12.945c-0.58594 0-1.1133-0.35547-1.3398-0.89453-0.22266-0.54297-0.097657-1.168 0.31641-1.582 0.41406-0.41406 1.0391-0.53906 1.5781-0.3125 0.54297 0.22266 0.89844 0.75391 0.89844 1.3398-0.003906 0.80078-0.65234 1.4492-1.4531 1.4492zm1.9844-4.6758h0.003906c-0.5625-0.35547-1.2109-0.55078-1.875-0.5625l-1.75-5.9805c0.95703-0.55078 1.6875-1.4297 2.0547-2.4727l2.0391 0.36719 5.918 1.0664c0.042969 0.60938 0.20312 1.2031 0.47266 1.75zm6.8047-9.8867-5.8555-1.0547-2.3281-0.42188c-0.13672-0.75-0.46094-1.457-0.9375-2.0547l3.8164-5.1367-0.003906 0.003906c0.32031 0.10156 0.65625 0.15625 0.99219 0.16797 0.039062 0 0.078124 0.007812 0.11719 0.007812v-0.003906c0.22656 0 0.45703-0.023437 0.67969-0.066406l4.4336 7.2188v0.003906c-0.37891 0.39062-0.6875 0.83984-0.91406 1.3359zm4.3203 4.3789c-0.97266 0-1.8516-0.58594-2.2266-1.4883-0.37109-0.89844-0.16406-1.9336 0.52344-2.625 0.6875-0.6875 1.7266-0.89453 2.625-0.51953 0.89844 0.37109 1.4883 1.25 1.4883 2.2227-0.003906 1.332-1.082 2.4102-2.4102 2.4102zm0.58984-7.1211c-0.67188-0.089844-1.3555-0.03125-2 0.17188l-4.3906-7.1523h-0.003906c0.47656-0.53516 0.78125-1.2031 0.87891-1.9102l8.0117-1.5781c0.23828 0.54297 0.60156 1.0195 1.0625 1.3984zm-2.0352-20.555c0.28516-0.66797 0.38281-1.3984 0.28906-2.1172l6.3242-2.7773h-0.003906c0.17578 0.12109 0.36328 0.22266 0.55859 0.30859l-0.24609 9.5039c-0.21875 0.066406-0.42969 0.15234-0.63281 0.25391zm8 10.004c-0.58594 0-1.1172-0.35156-1.3398-0.89453-0.22266-0.54297-0.10156-1.1641 0.31641-1.582 0.41406-0.41406 1.0352-0.53906 1.5781-0.3125 0.54297 0.22266 0.89453 0.75391 0.89453 1.3398 0 0.80078-0.64844 1.4492-1.4492 1.4492z"/>
  <path d="m38.102 6.2695c-4.5234-0.019531-8.4648 3.0742-9.5234 7.4727-0.035156-0.007813-0.074219-0.015626-0.11328-0.023438-0.082032-0.019531-0.16797-0.03125-0.25-0.050781-0.097656-0.019531-0.19531-0.039063-0.29297-0.054688-0.09375-0.015625-0.1875-0.027343-0.28516-0.039062-0.089844-0.011719-0.17969-0.023438-0.26953-0.035157-0.11328-0.011718-0.23047-0.019531-0.34375-0.027343-0.074219-0.003907-0.14453-0.011719-0.21875-0.015625-0.1875-0.011719-0.37891-0.015625-0.57031-0.015625v0.003906c-5.9258 0.003906-10.727 4.8047-10.734 10.73 0 0.21875 0.007812 0.4375 0.019531 0.65625 0.007813 0.125 0.023438 0.25391 0.035157 0.37891 0.007812 0.089844 0.015624 0.17578 0.023437 0.26562 0.019531 0.15625 0.042969 0.30859 0.070313 0.46484 0.007812 0.054687 0.015624 0.11328 0.027343 0.16797 0.03125 0.16406 0.066407 0.32422 0.10156 0.48437 0.011718 0.046876 0.019531 0.097657 0.03125 0.14453 0.011718 0.042968 0.015625 0.082031 0.027344 0.125h0.003906c-3.8438 1.4336-6.4023 5.0977-6.4258 9.1992 0 0.21484 0.007813 0.42969 0.023438 0.64453 0.003906 0.082031 0.015625 0.16406 0.023438 0.24609 0.011718 0.125 0.023437 0.25 0.039062 0.37891 0.011719 0.10547 0.03125 0.21094 0.046875 0.31641 0.015625 0.089844 0.03125 0.18359 0.046875 0.27344 0.023438 0.12891 0.050781 0.25781 0.078125 0.38281 0.011719 0.050781 0.023437 0.097656 0.035156 0.14844 0.17578 0.71094 0.43359 1.3984 0.76172 2.0547-4.793 3.1992-6.1484 9.6484-3.0391 14.504 0.007812 0.011719 0.011718 0.023438 0.019531 0.039063 0.011719 0.019531 0.023437 0.035156 0.035156 0.050781 0.054687 0.085937 0.11719 0.16797 0.17188 0.25v0.003906c0.27734 0.39844 0.58203 0.77734 0.91016 1.1328 0.023438 0.027344 0.046875 0.054687 0.070313 0.078125 0.12109 0.12891 0.24609 0.25 0.37109 0.37109l0.066407 0.066407c0.13281 0.125 0.26953 0.24609 0.41016 0.36719 0.015625 0.015625 0.035156 0.03125 0.050781 0.046875 0.14453 0.12109 0.29297 0.23828 0.44531 0.35547 0.007812 0.007812 0.019531 0.015625 0.027343 0.023438v-0.003907c-2.1406 2.5938-2.8008 6.1055-1.75 9.2969 1.0469 3.1953 3.6641 5.6289 6.9258 6.4492-0.003906 0.027344-0.003906 0.058594-0.007813 0.085937-0.027343 0.20313-0.046875 0.40625-0.0625 0.61328-0.003906 0.058594-0.011719 0.12109-0.015625 0.17969-0.015625 0.24609-0.027344 0.49609-0.027344 0.74609v0.003906c0.007813 6.6328 5.3867 12.012 12.023 12.02 0.30469 0 0.60547-0.015624 0.90625-0.039062 0.066406-0.003906 0.13672-0.007812 0.20312-0.015625 0.28125-0.027344 0.5625-0.0625 0.83984-0.10938 0.03125-0.003906 0.058593-0.007812 0.089843-0.011719l-0.003906 0.003907c1.8711 4.2383 6.457 6.5938 10.992 5.6367 4.5352-0.95312 7.7812-4.957 7.7852-9.5898v-67.031c-0.007812-5.4102-4.3906-9.7969-9.8047-9.8008zm7.4609 23.246h-9.8711c-3-0.003906-5.4258-2.4336-5.4297-5.4297 0-0.64453-0.52344-1.1719-1.1719-1.1719-0.64844 0-1.1719 0.52734-1.1719 1.1719 0.003906 4.293 3.4805 7.7695 7.7734 7.7734h9.8711v13.129h-21.258c-4.293 0.007813-7.7695 3.4844-7.7734 7.7734 0 0.64844 0.52344 1.1719 1.1719 1.1719 0.64453 0 1.1719-0.52344 1.1719-1.1719 0.003906-2.9961 2.4297-5.4258 5.4297-5.4297h21.258v35.77c-0.003906 3.4609-2.3867 6.4688-5.7578 7.2617-3.3711 0.78906-6.8438-0.84766-8.3828-3.9492 1.7188-0.66406 3.2656-1.7148 4.5156-3.0703 0.44141-0.47656 0.41016-1.2188-0.066406-1.6562-0.47656-0.4375-1.2188-0.40625-1.6562 0.070312-1.3359 1.4492-3.0859 2.457-5.0078 2.8867-0.046875 0.011719-0.09375 0.023438-0.14453 0.03125-0.10156 0.019531-0.20312 0.039063-0.30859 0.058594-0.089844 0.015625-0.18359 0.03125-0.27344 0.042969-0.085938 0.011718-0.17578 0.023437-0.26172 0.035156-0.11719 0.015625-0.23438 0.023438-0.35156 0.035156-0.070313 0.003906-0.13672 0.011719-0.20703 0.015625-0.1875 0.011719-0.37891 0.019531-0.57031 0.019531h0.003906c-5.3438-0.007812-9.6719-4.3359-9.6797-9.6797 0-0.18359 0.007813-0.36719 0.015626-0.54688 0.003906-0.042969 0.007812-0.082031 0.007812-0.125 0.011719-0.14453 0.023438-0.28906 0.039062-0.42969 0.003907-0.042968 0.011719-0.082031 0.015626-0.125 0-0.007812 0.003906-0.019531 0.003906-0.027343h0.003906c0.63672-4.8164 4.7344-8.4141 9.5938-8.4219 0.64453 0 1.1719-0.52344 1.1719-1.1719 0-0.64844-0.52734-1.1719-1.1719-1.1719-5.1289 0.007812-9.6875 3.2578-11.363 8.1055-2.543-0.64453-4.5586-2.5742-5.3086-5.0859s-0.125-5.2344 1.6445-7.168c2.6406 1.168 5.6406 1.207 8.3125 0.10938 2.668-1.0977 4.7734-3.2344 5.8281-5.9219 0.12109-0.28906 0.11719-0.61328-0.007812-0.90234-0.125-0.28516-0.35547-0.51172-0.64844-0.62891-0.28906-0.11328-0.61719-0.10547-0.90234 0.019532-0.28516 0.12891-0.50781 0.36328-0.62109 0.65625-1.0898 2.7773-3.5977 4.75-6.5547 5.1523-2.957 0.40625-5.9023-0.81641-7.6992-3.1992h0.003906c-0.054688-0.074218-0.10938-0.14453-0.16406-0.22266-0.035156-0.050781-0.070312-0.097656-0.10547-0.14844-1.2227-1.8203-1.6719-4.0508-1.2461-6.1992s1.6914-4.0391 3.5156-5.2539c0.87109 1.0078 1.9336 1.8281 3.1289 2.4141 0.58203 0.28516 1.2852 0.042969 1.5703-0.53516 0.28516-0.58203 0.042969-1.2852-0.53906-1.5703-1.7031-0.82813-3.0273-2.2773-3.6953-4.0508l0.011718 0.019532h-0.003906c-0.12109-0.32031-0.22266-0.64844-0.30078-0.98438-0.003907-0.011718-0.003907-0.019531-0.007813-0.03125-0.035156-0.15625-0.0625-0.31641-0.089844-0.47656-0.003906-0.023438-0.007812-0.050781-0.011718-0.074219-0.023438-0.14844-0.039063-0.30078-0.050782-0.44922-0.003906-0.035156-0.007812-0.066406-0.011718-0.10156-0.011719-0.18359-0.019532-0.36719-0.019532-0.55078 0.019532-3.1367 1.9805-5.9297 4.9219-7.0078 0.77734 1.5234 1.9102 2.8398 3.3008 3.8398h-0.003907c0.25391 0.1875 0.57031 0.26172 0.87891 0.21484 0.30859-0.050782 0.58594-0.22266 0.76953-0.47656 0.17969-0.25391 0.25391-0.57031 0.20312-0.87891-0.054687-0.30859-0.22656-0.58203-0.48438-0.76172-1.3398-0.96875-2.3672-2.3086-2.9531-3.8555-0.070313-0.1875-0.13672-0.37891-0.19141-0.57031-0.023438-0.074219-0.042969-0.15234-0.0625-0.23047-0.042969-0.16016-0.082031-0.32422-0.11328-0.48438-0.011719-0.058593-0.027344-0.11328-0.035157-0.17188-0.039062-0.21094-0.066406-0.42578-0.089843-0.64062-0.007813-0.0625-0.011719-0.125-0.015626-0.1875-0.019531-0.22656-0.03125-0.45312-0.03125-0.68359l-0.007812 0.003906c0.003906-4.6289 3.7578-8.3828 8.3906-8.3867 0.27344 0 0.53906 0.015625 0.80469 0.039063 0.078126 0.007812 0.15625 0.019531 0.23438 0.03125 0.1875 0.023437 0.375 0.050781 0.5625 0.085937 0.085937 0.015625 0.16797 0.039063 0.25391 0.054687 0.17578 0.039063 0.35156 0.085938 0.52344 0.13672 0.082031 0.023438 0.16406 0.050781 0.24219 0.078125 3.4375 1.1328 5.7617 4.3438 5.7656 7.9609 0 0.64844 0.52734 1.1719 1.1719 1.1719 0.64844 0 1.1719-0.52344 1.1719-1.1719-0.003906-4.1523-2.3984-7.9297-6.1523-9.7031 0.79688-3.7305 4.2812-6.2617 8.0742-5.8594 3.7969 0.40234 6.6758 3.6016 6.6758 7.418z"/>
  <path d="m36.652 39.379h5.8789c0.64453 0 1.1719-0.52344 1.1719-1.1719 0-0.64844-0.52734-1.1719-1.1719-1.1719h-5.8789c-0.64453 0-1.1719 0.52344-1.1719 1.1719 0 0.64844 0.52734 1.1719 1.1719 1.1719z"/>
  <path d="m25.867 30.434c-0.64844 0-1.1719 0.52734-1.1719 1.1719 0.003907 4.293 3.4805 7.7695 7.7734 7.7734 0.64453 0 1.1719-0.52344 1.1719-1.1719 0-0.64844-0.52734-1.1719-1.1719-1.1719-3-0.003906-5.4258-2.4336-5.4297-5.4297 0-0.64453-0.52344-1.1719-1.1719-1.1719z"/>
  <path d="m35.48 72.688c0 0.64844 0.52734 1.1719 1.1719 1.1719h5.8789c0.64453 0 1.1719-0.52344 1.1719-1.1719s-0.52734-1.1719-1.1719-1.1719h-5.8789c-0.64453 0-1.1719 0.52344-1.1719 1.1719z"/>
  <path d="m24.695 79.289c0 0.64453 0.52344 1.1719 1.1719 1.1719 0.64844 0 1.1719-0.52734 1.1719-1.1719 0.003907-3 2.4297-5.4258 5.4297-5.4297 0.64453 0 1.1719-0.52344 1.1719-1.1719s-0.52734-1.1719-1.1719-1.1719c-4.293 0.003906-7.7695 3.4805-7.7734 7.7734z"/>
  <path d="m34.379 63.457c-0.64453 0-1.1719 0.52344-1.1719 1.1719 0 0.64453 0.52734 1.1719 1.1719 1.1719 4.0898 0 7.4023-3.3164 7.4023-7.4023 0-4.0898-3.3125-7.4023-7.4023-7.4023-0.64453 0-1.1719 0.52344-1.1719 1.1719 0 0.64453 0.52734 1.1719 1.1719 1.1719 2.793 0 5.0586 2.2656 5.0586 5.0586 0 2.793-2.2656 5.0586-5.0586 5.0586z"/>
 </g>
<text x="0.0" y="117.5" font-size="5.0" font-weight="bold" font-family="Arbeit Regular, Helvetica, Arial-Unicode, Arial, Sans-serif" fill="#000000">Created by nuengrutai</text><text x="0.0" y="122.5" font-size="5.0" font-weight="bold" font-family="Arbeit Regular, Helvetica, Arial-Unicode, Arial, Sans-serif" fill="#000000">from Noun Project</text></svg>